<mxfile host="app.diagrams.net" agent="Mozilla/5.0 (Macintosh; Intel Mac OS X 10_15_7) AppleWebKit/537.36 (KHTML, like Gecko) Chrome/126.0.0.0 Safari/537.36" version="24.7.7" pages="3">
  <diagram name="example" id="6m0SjCJMhJMG4qp78Vzk">
    <mxGraphModel dx="943" dy="342" grid="1" gridSize="10" guides="1" tooltips="1" connect="1" arrows="1" fold="1" page="1" pageScale="1" pageWidth="850" pageHeight="1100" math="0" shadow="0">
      <root>
        <mxCell id="0" />
        <mxCell id="1" parent="0" />
        <mxCell id="6QK6c9BIW8bdQDDv_ydZ-24" style="edgeStyle=orthogonalEdgeStyle;rounded=0;orthogonalLoop=1;jettySize=auto;html=1;exitX=0.5;exitY=0;exitDx=0;exitDy=0;entryX=0.5;entryY=1;entryDx=0;entryDy=0;endArrow=none;endFill=0;" edge="1" parent="1" source="6QK6c9BIW8bdQDDv_ydZ-1" target="6QK6c9BIW8bdQDDv_ydZ-8">
          <mxGeometry relative="1" as="geometry" />
        </mxCell>
        <mxCell id="6QK6c9BIW8bdQDDv_ydZ-25" style="edgeStyle=orthogonalEdgeStyle;rounded=0;orthogonalLoop=1;jettySize=auto;html=1;exitX=1;exitY=0.5;exitDx=0;exitDy=0;entryX=0;entryY=0.5;entryDx=0;entryDy=0;endArrow=none;endFill=0;" edge="1" parent="1" source="6QK6c9BIW8bdQDDv_ydZ-1" target="6QK6c9BIW8bdQDDv_ydZ-9">
          <mxGeometry relative="1" as="geometry" />
        </mxCell>
        <mxCell id="6QK6c9BIW8bdQDDv_ydZ-26" style="edgeStyle=orthogonalEdgeStyle;rounded=0;orthogonalLoop=1;jettySize=auto;html=1;exitX=0.5;exitY=1;exitDx=0;exitDy=0;entryX=0.5;entryY=0;entryDx=0;entryDy=0;endArrow=none;endFill=0;" edge="1" parent="1" source="6QK6c9BIW8bdQDDv_ydZ-1" target="6QK6c9BIW8bdQDDv_ydZ-7">
          <mxGeometry relative="1" as="geometry" />
        </mxCell>
        <mxCell id="6QK6c9BIW8bdQDDv_ydZ-27" style="edgeStyle=orthogonalEdgeStyle;rounded=0;orthogonalLoop=1;jettySize=auto;html=1;exitX=0;exitY=0.5;exitDx=0;exitDy=0;entryX=1;entryY=0.5;entryDx=0;entryDy=0;endArrow=none;endFill=0;" edge="1" parent="1" source="6QK6c9BIW8bdQDDv_ydZ-1" target="6QK6c9BIW8bdQDDv_ydZ-10">
          <mxGeometry relative="1" as="geometry" />
        </mxCell>
        <mxCell id="6QK6c9BIW8bdQDDv_ydZ-1" value="" style="ellipse;whiteSpace=wrap;html=1;aspect=fixed;" vertex="1" parent="1">
          <mxGeometry x="160" y="120" width="20" height="20" as="geometry" />
        </mxCell>
        <mxCell id="6QK6c9BIW8bdQDDv_ydZ-48" style="rounded=0;orthogonalLoop=1;jettySize=auto;html=1;exitX=0.5;exitY=1;exitDx=0;exitDy=0;endArrow=none;endFill=0;" edge="1" parent="1" source="6QK6c9BIW8bdQDDv_ydZ-7">
          <mxGeometry relative="1" as="geometry">
            <mxPoint x="170" y="190" as="targetPoint" />
          </mxGeometry>
        </mxCell>
        <mxCell id="6QK6c9BIW8bdQDDv_ydZ-7" value="" style="ellipse;whiteSpace=wrap;html=1;aspect=fixed;" vertex="1" parent="1">
          <mxGeometry x="160" y="160" width="20" height="20" as="geometry" />
        </mxCell>
        <mxCell id="6QK6c9BIW8bdQDDv_ydZ-46" style="rounded=0;orthogonalLoop=1;jettySize=auto;html=1;exitX=0.5;exitY=0;exitDx=0;exitDy=0;endArrow=none;endFill=0;" edge="1" parent="1" source="6QK6c9BIW8bdQDDv_ydZ-8">
          <mxGeometry relative="1" as="geometry">
            <mxPoint x="170" y="70" as="targetPoint" />
          </mxGeometry>
        </mxCell>
        <mxCell id="6QK6c9BIW8bdQDDv_ydZ-8" value="" style="ellipse;whiteSpace=wrap;html=1;aspect=fixed;" vertex="1" parent="1">
          <mxGeometry x="160" y="80" width="20" height="20" as="geometry" />
        </mxCell>
        <mxCell id="6QK6c9BIW8bdQDDv_ydZ-45" style="rounded=0;orthogonalLoop=1;jettySize=auto;html=1;exitX=1;exitY=0.5;exitDx=0;exitDy=0;endArrow=none;endFill=0;" edge="1" parent="1" source="6QK6c9BIW8bdQDDv_ydZ-9">
          <mxGeometry relative="1" as="geometry">
            <mxPoint x="230" y="130" as="targetPoint" />
          </mxGeometry>
        </mxCell>
        <mxCell id="6QK6c9BIW8bdQDDv_ydZ-9" value="" style="ellipse;whiteSpace=wrap;html=1;aspect=fixed;" vertex="1" parent="1">
          <mxGeometry x="200" y="120" width="20" height="20" as="geometry" />
        </mxCell>
        <mxCell id="6QK6c9BIW8bdQDDv_ydZ-47" style="rounded=0;orthogonalLoop=1;jettySize=auto;html=1;exitX=0;exitY=0.5;exitDx=0;exitDy=0;endArrow=none;endFill=0;" edge="1" parent="1" source="6QK6c9BIW8bdQDDv_ydZ-10">
          <mxGeometry relative="1" as="geometry">
            <mxPoint x="110" y="130" as="targetPoint" />
          </mxGeometry>
        </mxCell>
        <mxCell id="6QK6c9BIW8bdQDDv_ydZ-10" value="" style="ellipse;whiteSpace=wrap;html=1;aspect=fixed;" vertex="1" parent="1">
          <mxGeometry x="120" y="120" width="20" height="20" as="geometry" />
        </mxCell>
        <mxCell id="6QK6c9BIW8bdQDDv_ydZ-28" style="edgeStyle=orthogonalEdgeStyle;rounded=0;orthogonalLoop=1;jettySize=auto;html=1;exitX=1;exitY=0.5;exitDx=0;exitDy=0;entryX=0;entryY=0.5;entryDx=0;entryDy=0;endArrow=none;endFill=0;" edge="1" parent="1" source="6QK6c9BIW8bdQDDv_ydZ-11" target="6QK6c9BIW8bdQDDv_ydZ-13">
          <mxGeometry relative="1" as="geometry" />
        </mxCell>
        <mxCell id="6QK6c9BIW8bdQDDv_ydZ-41" style="rounded=0;orthogonalLoop=1;jettySize=auto;html=1;exitX=0.5;exitY=0;exitDx=0;exitDy=0;endArrow=none;endFill=0;" edge="1" parent="1" source="6QK6c9BIW8bdQDDv_ydZ-11">
          <mxGeometry relative="1" as="geometry">
            <mxPoint x="280" y="120" as="targetPoint" />
          </mxGeometry>
        </mxCell>
        <mxCell id="6QK6c9BIW8bdQDDv_ydZ-11" value="" style="ellipse;whiteSpace=wrap;html=1;aspect=fixed;" vertex="1" parent="1">
          <mxGeometry x="270" y="140" width="20" height="20" as="geometry" />
        </mxCell>
        <mxCell id="6QK6c9BIW8bdQDDv_ydZ-30" style="edgeStyle=orthogonalEdgeStyle;rounded=0;orthogonalLoop=1;jettySize=auto;html=1;exitX=1;exitY=0.5;exitDx=0;exitDy=0;entryX=0;entryY=0.5;entryDx=0;entryDy=0;endArrow=none;endFill=0;" edge="1" parent="1" source="6QK6c9BIW8bdQDDv_ydZ-12" target="6QK6c9BIW8bdQDDv_ydZ-14">
          <mxGeometry relative="1" as="geometry" />
        </mxCell>
        <mxCell id="6QK6c9BIW8bdQDDv_ydZ-43" style="rounded=0;orthogonalLoop=1;jettySize=auto;html=1;exitX=0.5;exitY=0;exitDx=0;exitDy=0;endArrow=none;endFill=0;" edge="1" parent="1" source="6QK6c9BIW8bdQDDv_ydZ-12">
          <mxGeometry relative="1" as="geometry">
            <mxPoint x="340.1052631578948" y="120" as="targetPoint" />
          </mxGeometry>
        </mxCell>
        <mxCell id="6QK6c9BIW8bdQDDv_ydZ-12" value="" style="ellipse;whiteSpace=wrap;html=1;aspect=fixed;" vertex="1" parent="1">
          <mxGeometry x="330" y="140" width="20" height="20" as="geometry" />
        </mxCell>
        <mxCell id="6QK6c9BIW8bdQDDv_ydZ-29" style="edgeStyle=orthogonalEdgeStyle;rounded=0;orthogonalLoop=1;jettySize=auto;html=1;exitX=1;exitY=0.5;exitDx=0;exitDy=0;entryX=0;entryY=0.5;entryDx=0;entryDy=0;endArrow=none;endFill=0;" edge="1" parent="1" source="6QK6c9BIW8bdQDDv_ydZ-13" target="6QK6c9BIW8bdQDDv_ydZ-12">
          <mxGeometry relative="1" as="geometry" />
        </mxCell>
        <mxCell id="6QK6c9BIW8bdQDDv_ydZ-42" style="rounded=0;orthogonalLoop=1;jettySize=auto;html=1;exitX=0.5;exitY=0;exitDx=0;exitDy=0;endArrow=none;endFill=0;" edge="1" parent="1" source="6QK6c9BIW8bdQDDv_ydZ-13">
          <mxGeometry relative="1" as="geometry">
            <mxPoint x="310.1052631578948" y="120" as="targetPoint" />
          </mxGeometry>
        </mxCell>
        <mxCell id="6QK6c9BIW8bdQDDv_ydZ-13" value="" style="ellipse;whiteSpace=wrap;html=1;aspect=fixed;" vertex="1" parent="1">
          <mxGeometry x="300" y="140" width="20" height="20" as="geometry" />
        </mxCell>
        <mxCell id="6QK6c9BIW8bdQDDv_ydZ-44" style="rounded=0;orthogonalLoop=1;jettySize=auto;html=1;exitX=0.5;exitY=0;exitDx=0;exitDy=0;endArrow=none;endFill=0;" edge="1" parent="1" source="6QK6c9BIW8bdQDDv_ydZ-14">
          <mxGeometry relative="1" as="geometry">
            <mxPoint x="370.1052631578948" y="120" as="targetPoint" />
          </mxGeometry>
        </mxCell>
        <mxCell id="6QK6c9BIW8bdQDDv_ydZ-14" value="" style="ellipse;whiteSpace=wrap;html=1;aspect=fixed;" vertex="1" parent="1">
          <mxGeometry x="360" y="140" width="20" height="20" as="geometry" />
        </mxCell>
        <mxCell id="6QK6c9BIW8bdQDDv_ydZ-31" style="rounded=0;orthogonalLoop=1;jettySize=auto;html=1;exitX=0.5;exitY=1;exitDx=0;exitDy=0;entryX=0.5;entryY=0;entryDx=0;entryDy=0;endArrow=none;endFill=0;" edge="1" parent="1" source="6QK6c9BIW8bdQDDv_ydZ-15" target="6QK6c9BIW8bdQDDv_ydZ-16">
          <mxGeometry relative="1" as="geometry" />
        </mxCell>
        <mxCell id="6QK6c9BIW8bdQDDv_ydZ-32" style="rounded=0;orthogonalLoop=1;jettySize=auto;html=1;exitX=0.5;exitY=1;exitDx=0;exitDy=0;entryX=0.5;entryY=0;entryDx=0;entryDy=0;endArrow=none;endFill=0;" edge="1" parent="1" source="6QK6c9BIW8bdQDDv_ydZ-15" target="6QK6c9BIW8bdQDDv_ydZ-17">
          <mxGeometry relative="1" as="geometry" />
        </mxCell>
        <mxCell id="6QK6c9BIW8bdQDDv_ydZ-15" value="" style="ellipse;whiteSpace=wrap;html=1;aspect=fixed;" vertex="1" parent="1">
          <mxGeometry x="460" y="90" width="20" height="20" as="geometry" />
        </mxCell>
        <mxCell id="6QK6c9BIW8bdQDDv_ydZ-33" style="rounded=0;orthogonalLoop=1;jettySize=auto;html=1;exitX=0.5;exitY=1;exitDx=0;exitDy=0;entryX=0.5;entryY=0;entryDx=0;entryDy=0;endArrow=none;endFill=0;" edge="1" parent="1" source="6QK6c9BIW8bdQDDv_ydZ-16" target="6QK6c9BIW8bdQDDv_ydZ-18">
          <mxGeometry relative="1" as="geometry" />
        </mxCell>
        <mxCell id="6QK6c9BIW8bdQDDv_ydZ-34" style="rounded=0;orthogonalLoop=1;jettySize=auto;html=1;exitX=0.5;exitY=1;exitDx=0;exitDy=0;entryX=0.5;entryY=0;entryDx=0;entryDy=0;endArrow=none;endFill=0;" edge="1" parent="1" source="6QK6c9BIW8bdQDDv_ydZ-16" target="6QK6c9BIW8bdQDDv_ydZ-19">
          <mxGeometry relative="1" as="geometry" />
        </mxCell>
        <mxCell id="6QK6c9BIW8bdQDDv_ydZ-16" value="" style="ellipse;whiteSpace=wrap;html=1;aspect=fixed;" vertex="1" parent="1">
          <mxGeometry x="425" y="120" width="20" height="20" as="geometry" />
        </mxCell>
        <mxCell id="6QK6c9BIW8bdQDDv_ydZ-35" style="rounded=0;orthogonalLoop=1;jettySize=auto;html=1;exitX=0.5;exitY=1;exitDx=0;exitDy=0;entryX=0.5;entryY=0;entryDx=0;entryDy=0;endArrow=none;endFill=0;" edge="1" parent="1" source="6QK6c9BIW8bdQDDv_ydZ-17" target="6QK6c9BIW8bdQDDv_ydZ-20">
          <mxGeometry relative="1" as="geometry" />
        </mxCell>
        <mxCell id="6QK6c9BIW8bdQDDv_ydZ-36" style="rounded=0;orthogonalLoop=1;jettySize=auto;html=1;exitX=0.5;exitY=1;exitDx=0;exitDy=0;entryX=0.5;entryY=0;entryDx=0;entryDy=0;endArrow=none;endFill=0;" edge="1" parent="1" source="6QK6c9BIW8bdQDDv_ydZ-17" target="6QK6c9BIW8bdQDDv_ydZ-21">
          <mxGeometry relative="1" as="geometry" />
        </mxCell>
        <mxCell id="6QK6c9BIW8bdQDDv_ydZ-17" value="" style="ellipse;whiteSpace=wrap;html=1;aspect=fixed;" vertex="1" parent="1">
          <mxGeometry x="495" y="120" width="20" height="20" as="geometry" />
        </mxCell>
        <mxCell id="6QK6c9BIW8bdQDDv_ydZ-37" style="rounded=0;orthogonalLoop=1;jettySize=auto;html=1;exitX=0.5;exitY=1;exitDx=0;exitDy=0;endArrow=none;endFill=0;" edge="1" parent="1" source="6QK6c9BIW8bdQDDv_ydZ-18">
          <mxGeometry relative="1" as="geometry">
            <mxPoint x="419.8421052631579" y="180" as="targetPoint" />
          </mxGeometry>
        </mxCell>
        <mxCell id="6QK6c9BIW8bdQDDv_ydZ-18" value="" style="ellipse;whiteSpace=wrap;html=1;aspect=fixed;" vertex="1" parent="1">
          <mxGeometry x="410" y="150" width="20" height="20" as="geometry" />
        </mxCell>
        <mxCell id="6QK6c9BIW8bdQDDv_ydZ-38" style="rounded=0;orthogonalLoop=1;jettySize=auto;html=1;exitX=0.5;exitY=1;exitDx=0;exitDy=0;endArrow=none;endFill=0;" edge="1" parent="1" source="6QK6c9BIW8bdQDDv_ydZ-19">
          <mxGeometry relative="1" as="geometry">
            <mxPoint x="455.1052631578948" y="180" as="targetPoint" />
          </mxGeometry>
        </mxCell>
        <mxCell id="6QK6c9BIW8bdQDDv_ydZ-19" value="" style="ellipse;whiteSpace=wrap;html=1;aspect=fixed;" vertex="1" parent="1">
          <mxGeometry x="445" y="150" width="20" height="20" as="geometry" />
        </mxCell>
        <mxCell id="6QK6c9BIW8bdQDDv_ydZ-39" style="rounded=0;orthogonalLoop=1;jettySize=auto;html=1;exitX=0.5;exitY=1;exitDx=0;exitDy=0;endArrow=none;endFill=0;" edge="1" parent="1" source="6QK6c9BIW8bdQDDv_ydZ-20">
          <mxGeometry relative="1" as="geometry">
            <mxPoint x="485.1052631578948" y="180" as="targetPoint" />
          </mxGeometry>
        </mxCell>
        <mxCell id="6QK6c9BIW8bdQDDv_ydZ-20" value="" style="ellipse;whiteSpace=wrap;html=1;aspect=fixed;" vertex="1" parent="1">
          <mxGeometry x="475" y="150" width="20" height="20" as="geometry" />
        </mxCell>
        <mxCell id="6QK6c9BIW8bdQDDv_ydZ-40" style="rounded=0;orthogonalLoop=1;jettySize=auto;html=1;exitX=0.5;exitY=1;exitDx=0;exitDy=0;endArrow=none;endFill=0;" edge="1" parent="1" source="6QK6c9BIW8bdQDDv_ydZ-21">
          <mxGeometry relative="1" as="geometry">
            <mxPoint x="525.1052631578948" y="180" as="targetPoint" />
          </mxGeometry>
        </mxCell>
        <mxCell id="6QK6c9BIW8bdQDDv_ydZ-21" value="" style="ellipse;whiteSpace=wrap;html=1;aspect=fixed;" vertex="1" parent="1">
          <mxGeometry x="515" y="150" width="20" height="20" as="geometry" />
        </mxCell>
        <mxCell id="6QK6c9BIW8bdQDDv_ydZ-55" value="(a) Tucker" style="text;html=1;align=center;verticalAlign=middle;resizable=0;points=[];autosize=1;strokeColor=none;fillColor=none;" vertex="1" parent="1">
          <mxGeometry x="125" y="190" width="80" height="30" as="geometry" />
        </mxCell>
        <mxCell id="6QK6c9BIW8bdQDDv_ydZ-56" value="(b) Tensor Train" style="text;html=1;align=center;verticalAlign=middle;resizable=0;points=[];autosize=1;strokeColor=none;fillColor=none;" vertex="1" parent="1">
          <mxGeometry x="265" y="190" width="110" height="30" as="geometry" />
        </mxCell>
        <mxCell id="6QK6c9BIW8bdQDDv_ydZ-57" value="(c) Hierarchical Tucker" style="text;html=1;align=center;verticalAlign=middle;resizable=0;points=[];autosize=1;strokeColor=none;fillColor=none;" vertex="1" parent="1">
          <mxGeometry x="405" y="190" width="140" height="30" as="geometry" />
        </mxCell>
      </root>
    </mxGraphModel>
  </diagram>
  <diagram id="J-fNSD1RylQ2N0IQJbAG" name="orthogonalize">
    <mxGraphModel dx="813" dy="295" grid="1" gridSize="10" guides="1" tooltips="1" connect="1" arrows="1" fold="1" page="1" pageScale="1" pageWidth="850" pageHeight="1100" math="0" shadow="0">
      <root>
        <mxCell id="0" />
        <mxCell id="1" parent="0" />
        <mxCell id="4WTb0Ncd4odxINJbRVxv-11" style="rounded=0;orthogonalLoop=1;jettySize=auto;html=1;exitX=0.5;exitY=1;exitDx=0;exitDy=0;entryX=0.5;entryY=0;entryDx=0;entryDy=0;endArrow=none;endFill=0;" edge="1" parent="1" source="4WTb0Ncd4odxINJbRVxv-1" target="4WTb0Ncd4odxINJbRVxv-3">
          <mxGeometry relative="1" as="geometry" />
        </mxCell>
        <mxCell id="4WTb0Ncd4odxINJbRVxv-13" style="rounded=0;orthogonalLoop=1;jettySize=auto;html=1;exitX=0.5;exitY=1;exitDx=0;exitDy=0;entryX=0.5;entryY=0;entryDx=0;entryDy=0;endArrow=none;endFill=0;" edge="1" parent="1" source="4WTb0Ncd4odxINJbRVxv-1" target="4WTb0Ncd4odxINJbRVxv-2">
          <mxGeometry relative="1" as="geometry" />
        </mxCell>
        <mxCell id="4WTb0Ncd4odxINJbRVxv-1" value="" style="ellipse;whiteSpace=wrap;html=1;aspect=fixed;" vertex="1" parent="1">
          <mxGeometry x="160" y="80" width="20" height="20" as="geometry" />
        </mxCell>
        <mxCell id="4WTb0Ncd4odxINJbRVxv-7" style="rounded=0;orthogonalLoop=1;jettySize=auto;html=1;exitX=0.5;exitY=1;exitDx=0;exitDy=0;entryX=0.5;entryY=0;entryDx=0;entryDy=0;endArrow=none;endFill=0;" edge="1" parent="1" source="4WTb0Ncd4odxINJbRVxv-2" target="4WTb0Ncd4odxINJbRVxv-4">
          <mxGeometry relative="1" as="geometry" />
        </mxCell>
        <mxCell id="4WTb0Ncd4odxINJbRVxv-8" style="rounded=0;orthogonalLoop=1;jettySize=auto;html=1;exitX=0.5;exitY=1;exitDx=0;exitDy=0;entryX=0.5;entryY=0;entryDx=0;entryDy=0;endArrow=none;endFill=0;" edge="1" parent="1" source="4WTb0Ncd4odxINJbRVxv-2" target="4WTb0Ncd4odxINJbRVxv-5">
          <mxGeometry relative="1" as="geometry" />
        </mxCell>
        <mxCell id="4WTb0Ncd4odxINJbRVxv-2" value="" style="ellipse;whiteSpace=wrap;html=1;aspect=fixed;fillColor=#f8cecc;strokeColor=#b85450;" vertex="1" parent="1">
          <mxGeometry x="140" y="110" width="20" height="20" as="geometry" />
        </mxCell>
        <mxCell id="4WTb0Ncd4odxINJbRVxv-12" style="rounded=0;orthogonalLoop=1;jettySize=auto;html=1;exitX=0.5;exitY=1;exitDx=0;exitDy=0;endArrow=none;endFill=0;" edge="1" parent="1" source="4WTb0Ncd4odxINJbRVxv-3">
          <mxGeometry relative="1" as="geometry">
            <mxPoint x="190.16666666666674" y="140" as="targetPoint" />
          </mxGeometry>
        </mxCell>
        <mxCell id="4WTb0Ncd4odxINJbRVxv-3" value="" style="ellipse;whiteSpace=wrap;html=1;aspect=fixed;" vertex="1" parent="1">
          <mxGeometry x="180" y="110" width="20" height="20" as="geometry" />
        </mxCell>
        <mxCell id="4WTb0Ncd4odxINJbRVxv-9" style="rounded=0;orthogonalLoop=1;jettySize=auto;html=1;exitX=0.5;exitY=1;exitDx=0;exitDy=0;endArrow=none;endFill=0;" edge="1" parent="1" source="4WTb0Ncd4odxINJbRVxv-4">
          <mxGeometry relative="1" as="geometry">
            <mxPoint x="130.16666666666674" y="170" as="targetPoint" />
          </mxGeometry>
        </mxCell>
        <mxCell id="4WTb0Ncd4odxINJbRVxv-4" value="" style="ellipse;whiteSpace=wrap;html=1;aspect=fixed;" vertex="1" parent="1">
          <mxGeometry x="120" y="140" width="20" height="20" as="geometry" />
        </mxCell>
        <mxCell id="4WTb0Ncd4odxINJbRVxv-10" style="rounded=0;orthogonalLoop=1;jettySize=auto;html=1;exitX=0.5;exitY=1;exitDx=0;exitDy=0;endArrow=none;endFill=0;" edge="1" parent="1" source="4WTb0Ncd4odxINJbRVxv-5">
          <mxGeometry relative="1" as="geometry">
            <mxPoint x="170.16666666666674" y="170" as="targetPoint" />
          </mxGeometry>
        </mxCell>
        <mxCell id="4WTb0Ncd4odxINJbRVxv-5" value="" style="ellipse;whiteSpace=wrap;html=1;aspect=fixed;" vertex="1" parent="1">
          <mxGeometry x="160" y="140" width="20" height="20" as="geometry" />
        </mxCell>
        <mxCell id="4WTb0Ncd4odxINJbRVxv-14" value="(a) Select a node" style="text;html=1;align=center;verticalAlign=middle;resizable=0;points=[];autosize=1;strokeColor=none;fillColor=none;" vertex="1" parent="1">
          <mxGeometry x="115" y="178" width="110" height="30" as="geometry" />
        </mxCell>
        <mxCell id="4WTb0Ncd4odxINJbRVxv-26" style="rounded=0;orthogonalLoop=1;jettySize=auto;html=1;exitX=0.5;exitY=1;exitDx=0;exitDy=0;entryX=0.5;entryY=0;entryDx=0;entryDy=0;endArrow=none;endFill=0;" edge="1" parent="1" source="4WTb0Ncd4odxINJbRVxv-15" target="4WTb0Ncd4odxINJbRVxv-16">
          <mxGeometry relative="1" as="geometry" />
        </mxCell>
        <mxCell id="4WTb0Ncd4odxINJbRVxv-15" value="" style="ellipse;whiteSpace=wrap;html=1;aspect=fixed;fillColor=#f8cecc;strokeColor=#b85450;" vertex="1" parent="1">
          <mxGeometry x="255" y="80" width="20" height="20" as="geometry" />
        </mxCell>
        <mxCell id="4WTb0Ncd4odxINJbRVxv-27" style="rounded=0;orthogonalLoop=1;jettySize=auto;html=1;exitX=0.5;exitY=1;exitDx=0;exitDy=0;entryX=0.5;entryY=0;entryDx=0;entryDy=0;endArrow=none;endFill=0;" edge="1" parent="1" source="4WTb0Ncd4odxINJbRVxv-16" target="4WTb0Ncd4odxINJbRVxv-17">
          <mxGeometry relative="1" as="geometry" />
        </mxCell>
        <mxCell id="4WTb0Ncd4odxINJbRVxv-16" value="" style="ellipse;whiteSpace=wrap;html=1;aspect=fixed;" vertex="1" parent="1">
          <mxGeometry x="285" y="115" width="20" height="20" as="geometry" />
        </mxCell>
        <mxCell id="4WTb0Ncd4odxINJbRVxv-28" style="rounded=0;orthogonalLoop=1;jettySize=auto;html=1;exitX=0.5;exitY=1;exitDx=0;exitDy=0;endArrow=none;endFill=0;" edge="1" parent="1" source="4WTb0Ncd4odxINJbRVxv-17">
          <mxGeometry relative="1" as="geometry">
            <mxPoint x="295" y="170" as="targetPoint" />
          </mxGeometry>
        </mxCell>
        <mxCell id="4WTb0Ncd4odxINJbRVxv-17" value="" style="ellipse;whiteSpace=wrap;html=1;aspect=fixed;" vertex="1" parent="1">
          <mxGeometry x="285" y="140" width="20" height="20" as="geometry" />
        </mxCell>
        <mxCell id="4WTb0Ncd4odxINJbRVxv-20" style="rounded=0;orthogonalLoop=1;jettySize=auto;html=1;entryX=0.5;entryY=0;entryDx=0;entryDy=0;endArrow=none;endFill=0;exitX=0.5;exitY=1;exitDx=0;exitDy=0;" edge="1" parent="1" target="4WTb0Ncd4odxINJbRVxv-23" source="4WTb0Ncd4odxINJbRVxv-15">
          <mxGeometry relative="1" as="geometry">
            <mxPoint x="260" y="95" as="sourcePoint" />
          </mxGeometry>
        </mxCell>
        <mxCell id="4WTb0Ncd4odxINJbRVxv-21" style="rounded=0;orthogonalLoop=1;jettySize=auto;html=1;exitX=0.5;exitY=1;exitDx=0;exitDy=0;entryX=0.5;entryY=0;entryDx=0;entryDy=0;endArrow=none;endFill=0;" edge="1" parent="1" target="4WTb0Ncd4odxINJbRVxv-25" source="4WTb0Ncd4odxINJbRVxv-15">
          <mxGeometry relative="1" as="geometry">
            <mxPoint x="260" y="95" as="sourcePoint" />
          </mxGeometry>
        </mxCell>
        <mxCell id="4WTb0Ncd4odxINJbRVxv-22" style="rounded=0;orthogonalLoop=1;jettySize=auto;html=1;exitX=0.5;exitY=1;exitDx=0;exitDy=0;endArrow=none;endFill=0;" edge="1" parent="1" source="4WTb0Ncd4odxINJbRVxv-23">
          <mxGeometry relative="1" as="geometry">
            <mxPoint x="235.16666666666674" y="145" as="targetPoint" />
          </mxGeometry>
        </mxCell>
        <mxCell id="4WTb0Ncd4odxINJbRVxv-23" value="" style="ellipse;whiteSpace=wrap;html=1;aspect=fixed;" vertex="1" parent="1">
          <mxGeometry x="225" y="115" width="20" height="20" as="geometry" />
        </mxCell>
        <mxCell id="4WTb0Ncd4odxINJbRVxv-24" style="rounded=0;orthogonalLoop=1;jettySize=auto;html=1;exitX=0.5;exitY=1;exitDx=0;exitDy=0;endArrow=none;endFill=0;" edge="1" parent="1" source="4WTb0Ncd4odxINJbRVxv-25">
          <mxGeometry relative="1" as="geometry">
            <mxPoint x="265.16666666666674" y="145" as="targetPoint" />
          </mxGeometry>
        </mxCell>
        <mxCell id="4WTb0Ncd4odxINJbRVxv-25" value="" style="ellipse;whiteSpace=wrap;html=1;aspect=fixed;" vertex="1" parent="1">
          <mxGeometry x="255" y="115" width="20" height="20" as="geometry" />
        </mxCell>
        <mxCell id="4WTb0Ncd4odxINJbRVxv-29" value="(b) Make it root" style="text;html=1;align=center;verticalAlign=middle;resizable=0;points=[];autosize=1;strokeColor=none;fillColor=none;" vertex="1" parent="1">
          <mxGeometry x="215" y="178" width="100" height="30" as="geometry" />
        </mxCell>
        <mxCell id="4WTb0Ncd4odxINJbRVxv-30" style="rounded=0;orthogonalLoop=1;jettySize=auto;html=1;exitX=0.5;exitY=1;exitDx=0;exitDy=0;entryX=0.5;entryY=0;entryDx=0;entryDy=0;endArrow=none;endFill=0;" edge="1" parent="1" source="4WTb0Ncd4odxINJbRVxv-31" target="4WTb0Ncd4odxINJbRVxv-33">
          <mxGeometry relative="1" as="geometry" />
        </mxCell>
        <mxCell id="4WTb0Ncd4odxINJbRVxv-31" value="" style="ellipse;whiteSpace=wrap;html=1;aspect=fixed;fillColor=#f8cecc;strokeColor=#b85450;" vertex="1" parent="1">
          <mxGeometry x="355" y="80" width="20" height="20" as="geometry" />
        </mxCell>
        <mxCell id="4WTb0Ncd4odxINJbRVxv-32" style="rounded=0;orthogonalLoop=1;jettySize=auto;html=1;exitX=0.5;exitY=1;exitDx=0;exitDy=0;entryX=0.5;entryY=0;entryDx=0;entryDy=0;endArrow=none;endFill=0;" edge="1" parent="1" source="4WTb0Ncd4odxINJbRVxv-33" target="4WTb0Ncd4odxINJbRVxv-35">
          <mxGeometry relative="1" as="geometry" />
        </mxCell>
        <mxCell id="4WTb0Ncd4odxINJbRVxv-33" value="" style="ellipse;whiteSpace=wrap;html=1;aspect=fixed;" vertex="1" parent="1">
          <mxGeometry x="385" y="115" width="20" height="20" as="geometry" />
        </mxCell>
        <mxCell id="4WTb0Ncd4odxINJbRVxv-34" style="rounded=0;orthogonalLoop=1;jettySize=auto;html=1;exitX=0.5;exitY=1;exitDx=0;exitDy=0;endArrow=none;endFill=0;" edge="1" parent="1" source="4WTb0Ncd4odxINJbRVxv-35">
          <mxGeometry relative="1" as="geometry">
            <mxPoint x="395" y="170" as="targetPoint" />
          </mxGeometry>
        </mxCell>
        <mxCell id="4WTb0Ncd4odxINJbRVxv-35" value="" style="ellipse;whiteSpace=wrap;html=1;aspect=fixed;" vertex="1" parent="1">
          <mxGeometry x="385" y="140" width="20" height="20" as="geometry" />
        </mxCell>
        <mxCell id="4WTb0Ncd4odxINJbRVxv-36" style="rounded=0;orthogonalLoop=1;jettySize=auto;html=1;entryX=0.5;entryY=0;entryDx=0;entryDy=0;endArrow=none;endFill=0;exitX=0.5;exitY=1;exitDx=0;exitDy=0;" edge="1" parent="1" source="4WTb0Ncd4odxINJbRVxv-31" target="4WTb0Ncd4odxINJbRVxv-39">
          <mxGeometry relative="1" as="geometry">
            <mxPoint x="360" y="95" as="sourcePoint" />
          </mxGeometry>
        </mxCell>
        <mxCell id="4WTb0Ncd4odxINJbRVxv-37" style="rounded=0;orthogonalLoop=1;jettySize=auto;html=1;exitX=0.5;exitY=1;exitDx=0;exitDy=0;entryX=0.5;entryY=0;entryDx=0;entryDy=0;endArrow=none;endFill=0;" edge="1" parent="1" source="4WTb0Ncd4odxINJbRVxv-31" target="4WTb0Ncd4odxINJbRVxv-41">
          <mxGeometry relative="1" as="geometry">
            <mxPoint x="360" y="95" as="sourcePoint" />
          </mxGeometry>
        </mxCell>
        <mxCell id="4WTb0Ncd4odxINJbRVxv-38" style="rounded=0;orthogonalLoop=1;jettySize=auto;html=1;exitX=0.5;exitY=1;exitDx=0;exitDy=0;endArrow=none;endFill=0;" edge="1" parent="1" source="4WTb0Ncd4odxINJbRVxv-39">
          <mxGeometry relative="1" as="geometry">
            <mxPoint x="335.16666666666674" y="145" as="targetPoint" />
          </mxGeometry>
        </mxCell>
        <mxCell id="4WTb0Ncd4odxINJbRVxv-39" value="" style="ellipse;whiteSpace=wrap;html=1;aspect=fixed;" vertex="1" parent="1">
          <mxGeometry x="325" y="115" width="20" height="20" as="geometry" />
        </mxCell>
        <mxCell id="4WTb0Ncd4odxINJbRVxv-40" style="rounded=0;orthogonalLoop=1;jettySize=auto;html=1;exitX=0.5;exitY=1;exitDx=0;exitDy=0;endArrow=none;endFill=0;" edge="1" parent="1" source="4WTb0Ncd4odxINJbRVxv-41">
          <mxGeometry relative="1" as="geometry">
            <mxPoint x="365.16666666666674" y="145" as="targetPoint" />
          </mxGeometry>
        </mxCell>
        <mxCell id="4WTb0Ncd4odxINJbRVxv-41" value="" style="ellipse;whiteSpace=wrap;html=1;aspect=fixed;" vertex="1" parent="1">
          <mxGeometry x="355" y="115" width="20" height="20" as="geometry" />
        </mxCell>
        <mxCell id="4WTb0Ncd4odxINJbRVxv-42" value="(c) Orthogonalize" style="text;html=1;align=center;verticalAlign=middle;resizable=0;points=[];autosize=1;strokeColor=none;fillColor=none;" vertex="1" parent="1">
          <mxGeometry x="305" y="178" width="120" height="30" as="geometry" />
        </mxCell>
        <mxCell id="4WTb0Ncd4odxINJbRVxv-44" value="" style="verticalLabelPosition=bottom;verticalAlign=top;html=1;shape=mxgraph.basic.pie;startAngle=0.25;endAngle=0.75;fillColor=#000000;rotation=-180;" vertex="1" parent="1">
          <mxGeometry x="325" y="115" width="20" height="20" as="geometry" />
        </mxCell>
        <mxCell id="4WTb0Ncd4odxINJbRVxv-45" value="" style="verticalLabelPosition=bottom;verticalAlign=top;html=1;shape=mxgraph.basic.pie;startAngle=0.25;endAngle=0.75;fillColor=#000000;rotation=-180;" vertex="1" parent="1">
          <mxGeometry x="355" y="115" width="20" height="20" as="geometry" />
        </mxCell>
        <mxCell id="4WTb0Ncd4odxINJbRVxv-46" value="" style="verticalLabelPosition=bottom;verticalAlign=top;html=1;shape=mxgraph.basic.pie;startAngle=0.25;endAngle=0.75;fillColor=#000000;rotation=-180;" vertex="1" parent="1">
          <mxGeometry x="385" y="115" width="20" height="20" as="geometry" />
        </mxCell>
        <mxCell id="4WTb0Ncd4odxINJbRVxv-47" value="" style="verticalLabelPosition=bottom;verticalAlign=top;html=1;shape=mxgraph.basic.pie;startAngle=0.25;endAngle=0.75;fillColor=#000000;rotation=-180;" vertex="1" parent="1">
          <mxGeometry x="385" y="140" width="20" height="20" as="geometry" />
        </mxCell>
      </root>
    </mxGraphModel>
  </diagram>
  <diagram id="c8tdoMrRguqsKwkWgNM8" name="update">
    <mxGraphModel dx="258" dy="94" grid="1" gridSize="10" guides="1" tooltips="1" connect="1" arrows="1" fold="1" page="1" pageScale="1" pageWidth="850" pageHeight="1100" math="1" shadow="0">
      <root>
        <mxCell id="0" />
        <mxCell id="1" parent="0" />
        <mxCell id="TfXW5e-0d5AThDjHZZmj-1" style="rounded=0;orthogonalLoop=1;jettySize=auto;html=1;exitX=0.5;exitY=1;exitDx=0;exitDy=0;entryX=0.5;entryY=0;entryDx=0;entryDy=0;endArrow=none;endFill=0;" edge="1" parent="1" source="TfXW5e-0d5AThDjHZZmj-2" target="TfXW5e-0d5AThDjHZZmj-4">
          <mxGeometry relative="1" as="geometry" />
        </mxCell>
        <mxCell id="TfXW5e-0d5AThDjHZZmj-2" value="" style="ellipse;whiteSpace=wrap;html=1;aspect=fixed;fillColor=#f8cecc;strokeColor=#b85450;" vertex="1" parent="1">
          <mxGeometry x="220" y="100" width="20" height="20" as="geometry" />
        </mxCell>
        <mxCell id="TfXW5e-0d5AThDjHZZmj-3" style="rounded=0;orthogonalLoop=1;jettySize=auto;html=1;exitX=0.5;exitY=1;exitDx=0;exitDy=0;entryX=0.5;entryY=0;entryDx=0;entryDy=0;endArrow=none;endFill=0;" edge="1" parent="1" source="TfXW5e-0d5AThDjHZZmj-4" target="TfXW5e-0d5AThDjHZZmj-6">
          <mxGeometry relative="1" as="geometry" />
        </mxCell>
        <mxCell id="TfXW5e-0d5AThDjHZZmj-4" value="" style="ellipse;whiteSpace=wrap;html=1;aspect=fixed;" vertex="1" parent="1">
          <mxGeometry x="250" y="135" width="20" height="20" as="geometry" />
        </mxCell>
        <mxCell id="TfXW5e-0d5AThDjHZZmj-5" style="rounded=0;orthogonalLoop=1;jettySize=auto;html=1;exitX=0.5;exitY=1;exitDx=0;exitDy=0;endArrow=none;endFill=0;" edge="1" parent="1" source="TfXW5e-0d5AThDjHZZmj-6">
          <mxGeometry relative="1" as="geometry">
            <mxPoint x="260" y="190" as="targetPoint" />
          </mxGeometry>
        </mxCell>
        <mxCell id="TfXW5e-0d5AThDjHZZmj-6" value="" style="ellipse;whiteSpace=wrap;html=1;aspect=fixed;" vertex="1" parent="1">
          <mxGeometry x="250" y="160" width="20" height="20" as="geometry" />
        </mxCell>
        <mxCell id="TfXW5e-0d5AThDjHZZmj-7" style="rounded=0;orthogonalLoop=1;jettySize=auto;html=1;entryX=0.5;entryY=0;entryDx=0;entryDy=0;endArrow=none;endFill=0;exitX=0.5;exitY=1;exitDx=0;exitDy=0;" edge="1" parent="1" source="TfXW5e-0d5AThDjHZZmj-2" target="TfXW5e-0d5AThDjHZZmj-10">
          <mxGeometry relative="1" as="geometry">
            <mxPoint x="225" y="115" as="sourcePoint" />
          </mxGeometry>
        </mxCell>
        <mxCell id="TfXW5e-0d5AThDjHZZmj-8" style="rounded=0;orthogonalLoop=1;jettySize=auto;html=1;exitX=0.5;exitY=1;exitDx=0;exitDy=0;entryX=0.5;entryY=0;entryDx=0;entryDy=0;endArrow=none;endFill=0;" edge="1" parent="1" source="TfXW5e-0d5AThDjHZZmj-2" target="TfXW5e-0d5AThDjHZZmj-12">
          <mxGeometry relative="1" as="geometry">
            <mxPoint x="225" y="115" as="sourcePoint" />
          </mxGeometry>
        </mxCell>
        <mxCell id="TfXW5e-0d5AThDjHZZmj-9" style="rounded=0;orthogonalLoop=1;jettySize=auto;html=1;exitX=0.5;exitY=1;exitDx=0;exitDy=0;endArrow=none;endFill=0;" edge="1" parent="1" source="TfXW5e-0d5AThDjHZZmj-10">
          <mxGeometry relative="1" as="geometry">
            <mxPoint x="200.16666666666674" y="165" as="targetPoint" />
          </mxGeometry>
        </mxCell>
        <mxCell id="TfXW5e-0d5AThDjHZZmj-10" value="" style="ellipse;whiteSpace=wrap;html=1;aspect=fixed;" vertex="1" parent="1">
          <mxGeometry x="190" y="135" width="20" height="20" as="geometry" />
        </mxCell>
        <mxCell id="TfXW5e-0d5AThDjHZZmj-11" style="rounded=0;orthogonalLoop=1;jettySize=auto;html=1;exitX=0.5;exitY=1;exitDx=0;exitDy=0;endArrow=none;endFill=0;" edge="1" parent="1" source="TfXW5e-0d5AThDjHZZmj-12">
          <mxGeometry relative="1" as="geometry">
            <mxPoint x="230.16666666666674" y="165" as="targetPoint" />
          </mxGeometry>
        </mxCell>
        <mxCell id="TfXW5e-0d5AThDjHZZmj-12" value="" style="ellipse;whiteSpace=wrap;html=1;aspect=fixed;" vertex="1" parent="1">
          <mxGeometry x="220" y="135" width="20" height="20" as="geometry" />
        </mxCell>
        <mxCell id="TfXW5e-0d5AThDjHZZmj-13" value="" style="verticalLabelPosition=bottom;verticalAlign=top;html=1;shape=mxgraph.basic.pie;startAngle=0.25;endAngle=0.75;fillColor=#000000;rotation=-180;" vertex="1" parent="1">
          <mxGeometry x="190" y="135" width="20" height="20" as="geometry" />
        </mxCell>
        <mxCell id="TfXW5e-0d5AThDjHZZmj-14" value="" style="verticalLabelPosition=bottom;verticalAlign=top;html=1;shape=mxgraph.basic.pie;startAngle=0.25;endAngle=0.75;fillColor=#000000;rotation=-180;" vertex="1" parent="1">
          <mxGeometry x="220" y="135" width="20" height="20" as="geometry" />
        </mxCell>
        <mxCell id="TfXW5e-0d5AThDjHZZmj-15" value="" style="verticalLabelPosition=bottom;verticalAlign=top;html=1;shape=mxgraph.basic.pie;startAngle=0.25;endAngle=0.75;fillColor=#000000;rotation=-180;" vertex="1" parent="1">
          <mxGeometry x="250" y="135" width="20" height="20" as="geometry" />
        </mxCell>
        <mxCell id="TfXW5e-0d5AThDjHZZmj-16" value="" style="verticalLabelPosition=bottom;verticalAlign=top;html=1;shape=mxgraph.basic.pie;startAngle=0.25;endAngle=0.75;fillColor=#000000;rotation=-180;" vertex="1" parent="1">
          <mxGeometry x="250" y="160" width="20" height="20" as="geometry" />
        </mxCell>
        <mxCell id="TfXW5e-0d5AThDjHZZmj-17" value="Original TTN" style="text;html=1;align=center;verticalAlign=middle;resizable=0;points=[];autosize=1;strokeColor=none;fillColor=none;" vertex="1" parent="1">
          <mxGeometry x="185" y="190" width="90" height="30" as="geometry" />
        </mxCell>
        <mxCell id="TfXW5e-0d5AThDjHZZmj-22" value="New" style="text;html=1;align=center;verticalAlign=middle;resizable=0;points=[];autosize=1;strokeColor=none;fillColor=none;" vertex="1" parent="1">
          <mxGeometry x="305" y="95" width="50" height="30" as="geometry" />
        </mxCell>
        <mxCell id="TfXW5e-0d5AThDjHZZmj-26" value="" style="group;rotation=-180;" vertex="1" connectable="0" parent="1">
          <mxGeometry x="310" y="125" width="40" height="40" as="geometry" />
        </mxCell>
        <mxCell id="TfXW5e-0d5AThDjHZZmj-19" style="rounded=0;orthogonalLoop=1;jettySize=auto;html=1;exitX=0.5;exitY=0;exitDx=0;exitDy=0;endArrow=none;endFill=0;" edge="1" parent="TfXW5e-0d5AThDjHZZmj-26" source="TfXW5e-0d5AThDjHZZmj-18">
          <mxGeometry relative="1" as="geometry">
            <mxPoint x="20" y="40" as="targetPoint" />
          </mxGeometry>
        </mxCell>
        <mxCell id="TfXW5e-0d5AThDjHZZmj-20" style="rounded=0;orthogonalLoop=1;jettySize=auto;html=1;exitX=1;exitY=0;exitDx=0;exitDy=0;endArrow=none;endFill=0;" edge="1" parent="TfXW5e-0d5AThDjHZZmj-26" source="TfXW5e-0d5AThDjHZZmj-18">
          <mxGeometry relative="1" as="geometry">
            <mxPoint y="30" as="targetPoint" />
          </mxGeometry>
        </mxCell>
        <mxCell id="TfXW5e-0d5AThDjHZZmj-21" style="rounded=0;orthogonalLoop=1;jettySize=auto;html=1;exitX=0;exitY=0;exitDx=0;exitDy=0;endArrow=none;endFill=0;" edge="1" parent="TfXW5e-0d5AThDjHZZmj-26" source="TfXW5e-0d5AThDjHZZmj-18">
          <mxGeometry relative="1" as="geometry">
            <mxPoint x="40" y="30" as="targetPoint" />
          </mxGeometry>
        </mxCell>
        <mxCell id="TfXW5e-0d5AThDjHZZmj-18" value="" style="ellipse;whiteSpace=wrap;html=1;aspect=fixed;fillColor=#f8cecc;strokeColor=#b85450;rotation=-180;" vertex="1" parent="TfXW5e-0d5AThDjHZZmj-26">
          <mxGeometry x="10" width="20" height="20" as="geometry" />
        </mxCell>
        <mxCell id="TfXW5e-0d5AThDjHZZmj-27" value="$$\approx$$" style="text;html=1;align=center;verticalAlign=middle;resizable=0;points=[];autosize=1;strokeColor=none;fillColor=none;" vertex="1" parent="1">
          <mxGeometry x="325" y="130" width="90" height="30" as="geometry" />
        </mxCell>
        <mxCell id="TfXW5e-0d5AThDjHZZmj-28" style="rounded=0;orthogonalLoop=1;jettySize=auto;html=1;exitX=0.5;exitY=1;exitDx=0;exitDy=0;entryX=0.5;entryY=0;entryDx=0;entryDy=0;endArrow=none;endFill=0;" edge="1" parent="1" source="TfXW5e-0d5AThDjHZZmj-29" target="TfXW5e-0d5AThDjHZZmj-31">
          <mxGeometry relative="1" as="geometry" />
        </mxCell>
        <mxCell id="TfXW5e-0d5AThDjHZZmj-53" style="rounded=0;orthogonalLoop=1;jettySize=auto;html=1;exitX=0.5;exitY=0;exitDx=0;exitDy=0;endArrow=none;endFill=0;" edge="1" parent="1" source="TfXW5e-0d5AThDjHZZmj-29">
          <mxGeometry relative="1" as="geometry">
            <mxPoint x="469.9503105590062" y="90" as="targetPoint" />
          </mxGeometry>
        </mxCell>
        <mxCell id="TfXW5e-0d5AThDjHZZmj-29" value="" style="ellipse;whiteSpace=wrap;html=1;aspect=fixed;" vertex="1" parent="1">
          <mxGeometry x="460" y="105" width="20" height="20" as="geometry" />
        </mxCell>
        <mxCell id="TfXW5e-0d5AThDjHZZmj-30" style="rounded=0;orthogonalLoop=1;jettySize=auto;html=1;exitX=0.5;exitY=1;exitDx=0;exitDy=0;endArrow=none;endFill=0;" edge="1" parent="1" source="TfXW5e-0d5AThDjHZZmj-31">
          <mxGeometry relative="1" as="geometry">
            <mxPoint x="460" y="170" as="targetPoint" />
          </mxGeometry>
        </mxCell>
        <mxCell id="TfXW5e-0d5AThDjHZZmj-31" value="" style="ellipse;whiteSpace=wrap;html=1;aspect=fixed;" vertex="1" parent="1">
          <mxGeometry x="460" y="130" width="20" height="20" as="geometry" />
        </mxCell>
        <mxCell id="TfXW5e-0d5AThDjHZZmj-32" style="rounded=0;orthogonalLoop=1;jettySize=auto;html=1;exitX=0.5;exitY=1;exitDx=0;exitDy=0;endArrow=none;endFill=0;" edge="1" parent="1" source="TfXW5e-0d5AThDjHZZmj-33">
          <mxGeometry relative="1" as="geometry">
            <mxPoint x="420" y="170" as="targetPoint" />
          </mxGeometry>
        </mxCell>
        <mxCell id="TfXW5e-0d5AThDjHZZmj-51" style="rounded=0;orthogonalLoop=1;jettySize=auto;html=1;exitX=0.5;exitY=0;exitDx=0;exitDy=0;endArrow=none;endFill=0;" edge="1" parent="1" source="TfXW5e-0d5AThDjHZZmj-33">
          <mxGeometry relative="1" as="geometry">
            <mxPoint x="409.9503105590062" y="90" as="targetPoint" />
          </mxGeometry>
        </mxCell>
        <mxCell id="TfXW5e-0d5AThDjHZZmj-33" value="" style="ellipse;whiteSpace=wrap;html=1;aspect=fixed;" vertex="1" parent="1">
          <mxGeometry x="400" y="105" width="20" height="20" as="geometry" />
        </mxCell>
        <mxCell id="TfXW5e-0d5AThDjHZZmj-34" style="rounded=0;orthogonalLoop=1;jettySize=auto;html=1;exitX=0.5;exitY=1;exitDx=0;exitDy=0;endArrow=none;endFill=0;" edge="1" parent="1" source="TfXW5e-0d5AThDjHZZmj-35">
          <mxGeometry relative="1" as="geometry">
            <mxPoint x="440" y="160" as="targetPoint" />
          </mxGeometry>
        </mxCell>
        <mxCell id="TfXW5e-0d5AThDjHZZmj-52" style="rounded=0;orthogonalLoop=1;jettySize=auto;html=1;exitX=0.5;exitY=0;exitDx=0;exitDy=0;endArrow=none;endFill=0;" edge="1" parent="1" source="TfXW5e-0d5AThDjHZZmj-35">
          <mxGeometry relative="1" as="geometry">
            <mxPoint x="440.01242236024837" y="90" as="targetPoint" />
          </mxGeometry>
        </mxCell>
        <mxCell id="TfXW5e-0d5AThDjHZZmj-35" value="" style="ellipse;whiteSpace=wrap;html=1;aspect=fixed;" vertex="1" parent="1">
          <mxGeometry x="430" y="105" width="20" height="20" as="geometry" />
        </mxCell>
        <mxCell id="TfXW5e-0d5AThDjHZZmj-36" value="" style="verticalLabelPosition=bottom;verticalAlign=top;html=1;shape=mxgraph.basic.pie;startAngle=0.25;endAngle=0.75;fillColor=#000000;rotation=-180;" vertex="1" parent="1">
          <mxGeometry x="400" y="105" width="20" height="20" as="geometry" />
        </mxCell>
        <mxCell id="TfXW5e-0d5AThDjHZZmj-37" value="" style="verticalLabelPosition=bottom;verticalAlign=top;html=1;shape=mxgraph.basic.pie;startAngle=0.25;endAngle=0.75;fillColor=#000000;rotation=-180;" vertex="1" parent="1">
          <mxGeometry x="430" y="105" width="20" height="20" as="geometry" />
        </mxCell>
        <mxCell id="TfXW5e-0d5AThDjHZZmj-38" value="" style="verticalLabelPosition=bottom;verticalAlign=top;html=1;shape=mxgraph.basic.pie;startAngle=0.25;endAngle=0.75;fillColor=#000000;rotation=-180;" vertex="1" parent="1">
          <mxGeometry x="460" y="105" width="20" height="20" as="geometry" />
        </mxCell>
        <mxCell id="TfXW5e-0d5AThDjHZZmj-39" value="" style="verticalLabelPosition=bottom;verticalAlign=top;html=1;shape=mxgraph.basic.pie;startAngle=0.25;endAngle=0.75;fillColor=#000000;rotation=-180;" vertex="1" parent="1">
          <mxGeometry x="460" y="130" width="20" height="20" as="geometry" />
        </mxCell>
        <mxCell id="TfXW5e-0d5AThDjHZZmj-40" value="" style="group;rotation=0;" vertex="1" connectable="0" parent="1">
          <mxGeometry x="420" y="160" width="40" height="40" as="geometry" />
        </mxCell>
        <mxCell id="TfXW5e-0d5AThDjHZZmj-41" style="rounded=0;orthogonalLoop=1;jettySize=auto;html=1;exitX=0.5;exitY=0;exitDx=0;exitDy=0;endArrow=none;endFill=0;" edge="1" parent="TfXW5e-0d5AThDjHZZmj-40" source="TfXW5e-0d5AThDjHZZmj-44">
          <mxGeometry relative="1" as="geometry">
            <mxPoint x="20" as="targetPoint" />
          </mxGeometry>
        </mxCell>
        <mxCell id="TfXW5e-0d5AThDjHZZmj-42" style="rounded=0;orthogonalLoop=1;jettySize=auto;html=1;exitX=1;exitY=0;exitDx=0;exitDy=0;endArrow=none;endFill=0;" edge="1" parent="TfXW5e-0d5AThDjHZZmj-40" source="TfXW5e-0d5AThDjHZZmj-44">
          <mxGeometry relative="1" as="geometry">
            <mxPoint x="40" y="10" as="targetPoint" />
          </mxGeometry>
        </mxCell>
        <mxCell id="TfXW5e-0d5AThDjHZZmj-43" style="rounded=0;orthogonalLoop=1;jettySize=auto;html=1;exitX=0;exitY=0;exitDx=0;exitDy=0;endArrow=none;endFill=0;" edge="1" parent="TfXW5e-0d5AThDjHZZmj-40" source="TfXW5e-0d5AThDjHZZmj-44">
          <mxGeometry relative="1" as="geometry">
            <mxPoint y="10" as="targetPoint" />
          </mxGeometry>
        </mxCell>
        <mxCell id="TfXW5e-0d5AThDjHZZmj-44" value="" style="ellipse;whiteSpace=wrap;html=1;aspect=fixed;fillColor=#b0e3e6;strokeColor=#0e8088;rotation=0;" vertex="1" parent="TfXW5e-0d5AThDjHZZmj-40">
          <mxGeometry x="10" y="20" width="20" height="20" as="geometry" />
        </mxCell>
        <mxCell id="TfXW5e-0d5AThDjHZZmj-50" value="Full" style="text;html=1;align=center;verticalAlign=middle;resizable=0;points=[];autosize=1;strokeColor=none;fillColor=none;" vertex="1" parent="1">
          <mxGeometry x="390" y="180" width="40" height="30" as="geometry" />
        </mxCell>
      </root>
    </mxGraphModel>
  </diagram>
</mxfile>
